<svg xmlns="http://www.w3.org/2000/svg" width="13" height="13" viewBox="0 0 13 13" fill="none">
<g clip-path="url(#clip0_195_20982)">
<path d="M8.201 11V7.517H9.3675L9.542 6.163H8.201V5.299C8.201 4.907 8.31 4.6395 8.872 4.6395H9.589V3.4285C9.2419 3.39167 8.89305 3.37381 8.544 3.375C7.5105 3.375 6.803 4.006 6.803 5.165V6.163H5.634V7.517H6.803V11H2.5C2.36739 11 2.24021 10.9473 2.14645 10.8536C2.05268 10.7598 2 10.6326 2 10.5V2.5C2 2.36739 2.05268 2.24021 2.14645 2.14645C2.24021 2.05268 2.36739 2 2.5 2H10.5C10.6326 2 10.7598 2.05268 10.8536 2.14645C10.9473 2.24021 11 2.36739 11 2.5V10.5C11 10.6326 10.9473 10.7598 10.8536 10.8536C10.7598 10.9473 10.6326 11 10.5 11H8.201Z" fill="#C0C0C0"/>
</g>
<defs>
<clipPath id="clip0_195_20982">
<rect width="12" height="12" fill="white" transform="translate(0.5 0.5)"/>
</clipPath>
</defs>
</svg>