<svg xmlns="http://www.w3.org/2000/svg" width="12" height="13" viewBox="0 0 12 13" fill="none">
<g clip-path="url(#clip0_195_20979)">
<path d="M6 1.5C7.3585 1.5 7.528 1.505 8.061 1.53C8.5935 1.555 8.956 1.6385 9.275 1.7625C9.605 1.8895 9.883 2.0615 10.161 2.339C10.4152 2.58895 10.612 2.89129 10.7375 3.225C10.861 3.5435 10.945 3.9065 10.97 4.439C10.9935 4.972 11 5.1415 11 6.5C11 7.8585 10.995 8.028 10.97 8.561C10.945 9.0935 10.861 9.456 10.7375 9.775C10.6123 10.1089 10.4156 10.4113 10.161 10.661C9.91098 10.9152 9.60865 11.1119 9.275 11.2375C8.9565 11.361 8.5935 11.445 8.061 11.47C7.528 11.4935 7.3585 11.5 6 11.5C4.6415 11.5 4.472 11.495 3.939 11.47C3.4065 11.445 3.044 11.361 2.725 11.2375C2.39116 11.1122 2.08876 10.9155 1.839 10.661C1.5847 10.4111 1.38797 10.1087 1.2625 9.775C1.1385 9.4565 1.055 9.0935 1.03 8.561C1.0065 8.028 1 7.8585 1 6.5C1 5.1415 1.005 4.972 1.03 4.439C1.055 3.906 1.1385 3.544 1.2625 3.225C1.38762 2.89109 1.5844 2.58866 1.839 2.339C2.08884 2.08462 2.39121 1.88786 2.725 1.7625C3.044 1.6385 3.406 1.555 3.939 1.53C4.472 1.5065 4.6415 1.5 6 1.5ZM6 4C5.33696 4 4.70107 4.26339 4.23223 4.73223C3.76339 5.20107 3.5 5.83696 3.5 6.5C3.5 7.16304 3.76339 7.79893 4.23223 8.26777C4.70107 8.73661 5.33696 9 6 9C6.66304 9 7.29893 8.73661 7.76777 8.26777C8.23661 7.79893 8.5 7.16304 8.5 6.5C8.5 5.83696 8.23661 5.20107 7.76777 4.73223C7.29893 4.26339 6.66304 4 6 4ZM9.25 3.875C9.25 3.70924 9.18415 3.55027 9.06694 3.43306C8.94973 3.31585 8.79076 3.25 8.625 3.25C8.45924 3.25 8.30027 3.31585 8.18306 3.43306C8.06585 3.55027 8 3.70924 8 3.875C8 4.04076 8.06585 4.19973 8.18306 4.31694C8.30027 4.43415 8.45924 4.5 8.625 4.5C8.79076 4.5 8.94973 4.43415 9.06694 4.31694C9.18415 4.19973 9.25 4.04076 9.25 3.875ZM6 5C6.39782 5 6.77936 5.15804 7.06066 5.43934C7.34196 5.72064 7.5 6.10218 7.5 6.5C7.5 6.89782 7.34196 7.27936 7.06066 7.56066C6.77936 7.84196 6.39782 8 6 8C5.60218 8 5.22064 7.84196 4.93934 7.56066C4.65804 7.27936 4.5 6.89782 4.5 6.5C4.5 6.10218 4.65804 5.72064 4.93934 5.43934C5.22064 5.15804 5.60218 5 6 5Z" fill="#C0C0C0"/>
</g>
<defs>
<clipPath id="clip0_195_20979">
<rect width="12" height="12" fill="white" transform="translate(0 0.5)"/>
</clipPath>
</defs>
</svg>