<svg width="12" height="13" viewBox="0 0 12 13" fill="none" xmlns="http://www.w3.org/2000/svg">
<path d="M2.528 0.2737C1.2668 0.2737 0.2518 1.2877 0.2518 2.5488V9.7752C0.2518 11.0363 1.2667 12.0502 2.5278 12.0502H9.472C10.7332 12.0502 11.7482 11.0363 11.7482 9.7752V2.5488C11.7482 1.2877 10.7332 0.2737 9.472 0.2737H2.528ZM3.184 1.9232C3.7122 1.9232 4.022 2.2622 4.0347 2.7079C4.0347 3.1438 3.7119 3.4924 3.1897 3.4924H3.181C2.6818 3.4924 2.365 3.1439 2.365 2.7079C2.365 2.2622 2.7033 1.9232 3.184 1.9232H3.184ZM7.154 4.0062C8.1473 4.0062 8.8919 4.6555 8.8919 6.0505V8.6551H7.3824V6.2253C7.3824 5.6147 7.1639 5.198 6.6176 5.198C6.2007 5.198 5.952 5.4789 5.8429 5.7501C5.803 5.8471 5.7932 5.9827 5.7932 6.1184V8.6551H4.2836C4.2836 8.6551 4.3035 4.5385 4.2836 4.1128H5.7937V4.756C5.9941 4.4465 6.353 4.0062 7.154 4.0062V4.0062ZM2.4385 4.1131H3.948V8.6551H2.4385V4.1131Z" fill="#CCCCCC"/>
</svg>
