<svg width="40" height="40" viewBox="0 0 40 40" fill="none" xmlns="http://www.w3.org/2000/svg">
<g id="pepicons-print:wifi">
<g id="Group">
<g id="Group_2" opacity="0.2">
<path id="Vector" d="M28.8135 24.4501C28.9996 24.6278 29.1488 24.8406 29.2523 25.0762C29.3559 25.3118 29.4117 25.5655 29.4167 25.8228C29.4217 26.0801 29.3758 26.3359 29.2814 26.5753C29.1871 26.8148 29.0464 27.0332 28.8672 27.2179C28.6881 27.4027 28.4742 27.5502 28.2378 27.6519C28.0014 27.7537 27.7472 27.8076 27.4899 27.8106C27.2326 27.8136 26.9772 27.7656 26.7385 27.6695C26.4998 27.5733 26.2824 27.4308 26.0991 27.2503C26.0348 27.1896 25.9684 27.131 25.9002 27.0748C25.5313 26.7893 25.1218 26.5606 24.6853 26.3962C23.802 26.0452 22.7353 25.8502 21.6063 25.8502C19.824 25.8502 18.2269 26.3396 17.3124 27.0767C17.2396 27.1339 17.1733 27.1918 17.1135 27.2503C16.9301 27.4308 16.7128 27.5733 16.474 27.6695C16.2353 27.7656 15.98 27.8136 15.7226 27.8106C15.4653 27.8076 15.2111 27.7537 14.9747 27.6519C14.7383 27.5502 14.5244 27.4027 14.3453 27.2179C14.1661 27.0332 14.0254 26.8148 13.9311 26.5753C13.8368 26.3359 13.7908 26.0801 13.7958 25.8228C13.8008 25.5655 13.8567 25.3118 13.9602 25.0762C14.0637 24.8406 14.2129 24.6278 14.3991 24.4501C14.5473 24.3071 14.7033 24.1693 14.8671 24.0367C16.5265 22.7048 18.9855 21.9502 21.6063 21.9502C23.2189 21.9502 24.7731 22.2349 26.1225 22.7692C26.961 23.1007 27.7117 23.5277 28.3455 24.0367C28.5093 24.1693 28.6653 24.3071 28.8135 24.4501Z" fill="url(#paint0_linear_113_1237)"/>
<path id="Vector_2" d="M33.7216 19.3937C33.9056 19.5753 34.0517 19.7917 34.1514 20.0303C34.251 20.2689 34.3022 20.5249 34.302 20.7835C34.3017 21.0421 34.2501 21.298 34.15 21.5364C34.0499 21.7748 33.9034 21.991 33.7191 22.1722C33.5347 22.3535 33.3161 22.4963 33.076 22.5923C32.8359 22.6883 32.5792 22.7356 32.3206 22.7315C32.0621 22.7273 31.807 22.6718 31.5701 22.5681C31.3332 22.4645 31.1193 22.3147 30.9409 22.1276C30.748 21.9318 30.5449 21.7463 30.3325 21.5719C29.8634 21.1917 29.3631 20.8518 28.8368 20.5559C28.2558 20.2283 27.6477 19.9511 27.0194 19.7271C26.3486 19.4798 25.6595 19.2855 24.9583 19.1461C24.2273 18.9937 23.4864 18.894 22.7411 18.8477C21.6091 18.7757 20.4728 18.8135 19.3481 18.9608C18.6223 19.0577 17.9042 19.2057 17.1992 19.4035C16.5321 19.5902 15.8803 19.8275 15.2492 20.1132C14.6697 20.3775 14.1128 20.6885 13.5839 21.0434C13.3415 21.2082 13.1066 21.3839 12.88 21.5699C12.6675 21.7449 12.4644 21.9311 12.2716 22.1276C12.0944 22.3193 11.8805 22.4735 11.6425 22.581C11.4046 22.6886 11.1475 22.7472 10.8865 22.7535C10.6255 22.7598 10.3659 22.7136 10.1231 22.6177C9.88024 22.5217 9.65916 22.378 9.47292 22.1951C9.28668 22.0121 9.13907 21.7936 9.03887 21.5525C8.93866 21.3114 8.88789 21.0526 8.88957 20.7916C8.89124 20.5305 8.94533 20.2724 9.04862 20.0326C9.15191 19.7928 9.3023 19.5762 9.49087 19.3956C9.77427 19.1096 10.0746 18.8341 10.3918 18.5689C10.7077 18.3075 11.0405 18.058 11.3902 17.8201C12.0994 17.3371 12.8498 16.9176 13.6327 16.5662C14.4441 16.1981 15.2825 15.8924 16.1404 15.6516C17.0226 15.4041 17.9212 15.219 18.8294 15.0978C19.7497 14.9725 20.6774 14.91 21.6062 14.9106C22.5349 14.9122 23.4624 14.9741 24.383 15.0959C25.2919 15.217 26.1912 15.4021 27.074 15.6497C27.9313 15.8905 28.7689 16.1963 29.5798 16.5642C30.3605 16.9198 31.1105 17.3392 31.8223 17.8181C32.1733 18.056 32.5061 18.3056 32.8207 18.5669C33.1379 18.8321 33.4382 19.1077 33.7216 19.3937Z" fill="url(#paint1_linear_113_1237)"/>
<path id="Vector_3" d="M37.684 14.583C38.0122 14.9707 38.1761 15.4711 38.1409 15.9778C38.1058 16.4845 37.8743 16.9574 37.4958 17.2961C37.1172 17.6347 36.6215 17.8123 36.114 17.7911C35.6066 17.7698 35.1274 17.5514 34.7785 17.1823C34.4984 16.8682 34.2016 16.5694 33.8893 16.2873C33.565 15.9916 33.2266 15.7118 32.8753 15.4488C32.1283 14.8969 31.3357 14.4096 30.5061 13.9921C29.6234 13.5496 28.7049 13.1823 27.7605 12.8943C26.7778 12.5878 25.7723 12.3596 24.7536 12.2118C23.7115 12.0592 22.6595 11.9836 21.6063 11.9856C20.553 11.9843 19.5011 12.0605 18.459 12.2137C17.4409 12.3653 16.4358 12.5935 15.4521 12.8962C14.51 13.1899 13.5926 13.5577 12.7084 13.996C12.2855 14.2066 11.8723 14.4363 11.4702 14.6844C11.0822 14.9232 10.7048 15.1789 10.3392 15.4507C9.98789 15.7138 9.6495 15.9936 9.32518 16.2892C9.01218 16.572 8.71469 16.8714 8.43403 17.1862C8.08761 17.566 7.60525 17.7936 7.09186 17.8196C6.57848 17.8456 6.07561 17.6678 5.69263 17.3249C5.30966 16.982 5.07756 16.5018 5.04683 15.9887C5.01609 15.4756 5.18921 14.9711 5.52853 14.5849C5.89253 14.1767 6.28253 13.7841 6.69853 13.4071C7.10933 13.0301 7.54353 12.6707 8.00113 12.3288C8.45743 11.9882 8.93323 11.6658 9.42853 11.3616C10.4334 10.7422 11.4904 10.2117 12.5875 9.77623C13.7168 9.3231 14.8809 8.96183 16.0683 8.69593C17.2766 8.42152 18.5041 8.23964 19.7401 8.15188C21.6036 8.01724 23.4763 8.0859 25.3249 8.35663C26.5411 8.53736 27.7418 8.80983 28.9168 9.17173C30.062 9.52852 31.1771 9.97583 32.2513 10.5094C33.2883 11.0301 34.2786 11.6388 35.2114 12.3288C35.6677 12.672 36.1026 13.0314 36.516 13.4071C36.9294 13.7828 37.3194 14.1754 37.686 14.5849M25.5063 32.1876C25.5063 33.2219 25.0954 34.2139 24.364 34.9453C23.6326 35.6767 22.6406 36.0876 21.6063 36.0876C20.5719 36.0876 19.58 35.6767 18.8486 34.9453C18.1172 34.2139 17.7063 33.2219 17.7063 32.1876C17.7063 31.1532 18.1172 30.1613 18.8486 29.4299C19.58 28.6985 20.5719 28.2876 21.6063 28.2876C22.6406 28.2876 23.6326 28.6985 24.364 29.4299C25.0954 30.1613 25.5063 31.1532 25.5063 32.1876Z" fill="url(#paint2_linear_113_1237)"/>
</g>
<path id="Vector_4" d="M26.1849 23.2C26.3682 23.3805 26.4728 23.6262 26.4758 23.8834C26.4788 24.1407 26.38 24.3887 26.2009 24.5734C26.0219 24.7582 25.777 24.8646 25.5198 24.8696C25.2626 24.8746 25.0138 24.7778 24.8277 24.6001C24.7429 24.5182 24.6544 24.4401 24.5625 24.3661C24.1155 24.0211 23.6209 23.7426 23.0941 23.5393C21.9969 23.1207 20.8306 22.9123 19.6563 22.9251C17.6634 22.9251 15.8518 23.4808 14.7501 24.3661C14.6552 24.4441 14.5668 24.5221 14.4849 24.6001C14.2988 24.7778 14.05 24.8746 13.7928 24.8696C13.5355 24.8646 13.2907 24.7582 13.1116 24.5734C12.9326 24.3887 12.8338 24.1407 12.8368 23.8834C12.8398 23.6262 12.9444 23.3805 13.1277 23.2C13.2538 23.0778 13.3877 22.9595 13.5294 22.8451C14.9997 21.6634 17.2441 20.9751 19.6563 20.9751C21.148 20.9751 22.5813 21.2364 23.8137 21.7258C24.5644 22.0242 25.2294 22.4005 25.7832 22.8451C25.9249 22.9608 26.0588 23.0791 26.1849 23.2ZM31.0755 18.1281C31.1735 18.2173 31.2523 18.3256 31.3071 18.4464C31.3618 18.5671 31.3914 18.6978 31.3939 18.8303C31.3964 18.9629 31.3719 19.0946 31.3218 19.2173C31.2718 19.3401 31.1972 19.4513 31.1026 19.5443C31.0081 19.6372 30.8956 19.7099 30.772 19.7579C30.6484 19.8059 30.5163 19.8282 30.3838 19.8234C30.2513 19.8186 30.1212 19.7868 30.0014 19.73C29.8816 19.6732 29.7747 19.5926 29.6871 19.4931C29.4696 19.2744 29.2418 19.0662 29.0046 18.8691C28.7551 18.6626 28.4954 18.4686 28.2265 18.288C27.3469 17.6984 26.3979 17.2196 25.401 16.8625C24.6853 16.6019 23.9514 16.3939 23.2053 16.2405C22.4301 16.0823 21.645 15.9768 20.8555 15.9246C19.6592 15.8456 18.458 15.8854 17.2695 16.0435C16.4981 16.15 15.7346 16.3076 14.9841 16.5154C14.2707 16.719 13.5728 16.9731 12.8956 17.2759C12.2662 17.5641 11.661 17.9025 11.086 18.288C10.813 18.4739 10.5537 18.6676 10.308 18.8691C10.0662 19.0706 9.83869 19.2786 9.62549 19.4931C9.44119 19.6609 9.19961 19.7517 8.9504 19.747C8.70119 19.7422 8.46328 19.6422 8.28553 19.4674C8.10779 19.2927 8.00373 19.0565 7.99472 18.8074C7.98571 18.5583 8.07244 18.3152 8.23709 18.1281C8.49449 17.8655 8.77009 17.612 9.06389 17.3676C9.35639 17.1258 9.66449 16.895 9.98819 16.6753C10.6517 16.2231 11.3538 15.8303 12.0864 15.5014C12.8515 15.15 13.6439 14.8611 14.4556 14.6376C15.2929 14.399 16.1468 14.223 17.0101 14.1111C17.8872 13.9926 18.7713 13.934 19.6563 13.9356C20.5413 13.934 21.4254 13.9926 22.3024 14.1111C23.1647 14.2294 24.0181 14.4053 24.8569 14.6376C25.6664 14.8683 26.4582 15.157 27.2262 15.5014C27.9562 15.8353 28.6579 16.2278 29.3244 16.6753C29.6481 16.8963 29.9562 17.1271 30.2487 17.3676C30.5425 17.612 30.8181 17.8655 31.0755 18.1281Z" fill="url(#paint3_linear_113_1237)"/>
<path id="Vector_5" d="M35.0086 13.2822C35.094 13.3777 35.1598 13.4891 35.2021 13.61C35.2445 13.7309 35.2626 13.859 35.2554 13.987C35.2483 14.1149 35.216 14.2402 35.1605 14.3556C35.1049 14.4711 35.0271 14.5744 34.9316 14.6598C34.8361 14.7452 34.7247 14.811 34.6038 14.8533C34.4828 14.8957 34.3547 14.9138 34.2268 14.9067C34.0989 14.8995 33.9736 14.8672 33.8582 14.8117C33.7427 14.7561 33.6393 14.6783 33.5539 14.5828C33.2504 14.2446 32.9302 13.9218 32.5945 13.6156C32.2462 13.3004 31.8838 13.0011 31.5084 12.7186C30.7149 12.1327 29.8734 11.6148 28.9929 11.1703C28.0625 10.7036 27.0945 10.3161 26.0991 10.012C25.0683 9.69216 24.014 9.45353 22.9459 9.29832C21.8568 9.13701 20.7573 9.05684 19.6563 9.05847C18.5555 9.06094 17.4562 9.14109 16.3666 9.29832C15.2991 9.45656 14.2451 9.69514 13.2135 10.012C12.2201 10.321 11.2531 10.709 10.3216 11.1723C9.87398 11.3965 9.43613 11.6399 9.00929 11.9016C8.59505 12.1556 8.19291 12.4289 7.80419 12.7206C7.42199 13.0066 7.05994 13.3056 6.71804 13.6176C6.37614 13.9283 6.05634 14.25 5.75864 14.5828C5.67324 14.6783 5.56986 14.7561 5.4544 14.8117C5.33895 14.8672 5.21368 14.8995 5.08575 14.9067C4.95782 14.9138 4.82974 14.8957 4.70881 14.8533C4.58788 14.811 4.47648 14.7452 4.38096 14.6598C4.28545 14.5744 4.20769 14.4711 4.15212 14.3556C4.09656 14.2402 4.06428 14.1149 4.05712 13.987C4.04997 13.859 4.06809 13.7309 4.11044 13.61C4.15278 13.4891 4.21854 13.3777 4.30394 13.2822C4.64714 12.9 5.01374 12.5308 5.40374 12.1746C5.79374 11.8184 6.20454 11.4797 6.63614 11.1586C7.06774 10.8349 7.51884 10.5288 7.98944 10.2402C8.94819 9.65041 9.9562 9.14477 11.0022 8.72892C12.0831 8.29449 13.1977 7.94885 14.3347 7.69542C15.4949 7.43184 16.6736 7.25713 17.8603 7.17282C19.6522 7.04283 21.4529 7.10821 23.2306 7.36782C24.3973 7.54126 25.5491 7.80265 26.6763 8.14977C27.7715 8.49024 28.8377 8.91801 29.8645 9.42897C30.3676 9.68117 30.8545 9.95157 31.3251 10.2402C31.7931 10.5288 32.2435 10.8343 32.6764 11.1567C33.1093 11.4804 33.5201 11.8197 33.9088 12.1746C34.2988 12.5308 34.6654 12.9 35.0086 13.2822ZM23.0688 30.2374C23.0688 30.6856 22.9805 31.1293 22.809 31.5433C22.6375 31.9573 22.3862 32.3335 22.0693 32.6504C21.7524 32.9673 21.3762 33.2187 20.9622 33.3902C20.5482 33.5616 20.1044 33.6499 19.6563 33.6499C19.2081 33.6499 18.7644 33.5616 18.3504 33.3902C17.9364 33.2187 17.5602 32.9673 17.2433 32.6504C16.9264 32.3335 16.675 31.9573 16.5035 31.5433C16.3321 31.1293 16.2438 30.6856 16.2438 30.2374C16.2438 29.3324 16.6033 28.4644 17.2433 27.8244C17.8833 27.1844 18.7512 26.8249 19.6563 26.8249C20.5613 26.8249 21.4293 27.1844 22.0693 27.8244C22.7093 28.4644 23.0688 29.3324 23.0688 30.2374Z" fill="url(#paint4_linear_113_1237)"/>
</g>
</g>
<defs>
<linearGradient id="paint0_linear_113_1237" x1="21.6063" y1="21.9502" x2="21.6063" y2="27.8107" gradientUnits="userSpaceOnUse">
<stop stop-color="#E5BC4A"/>
<stop offset="1" stop-color="#F48F27"/>
</linearGradient>
<linearGradient id="paint1_linear_113_1237" x1="21.5957" y1="14.9106" x2="21.5957" y2="22.7541" gradientUnits="userSpaceOnUse">
<stop stop-color="#E5BC4A"/>
<stop offset="1" stop-color="#F48F27"/>
</linearGradient>
<linearGradient id="paint2_linear_113_1237" x1="21.5945" y1="8.08496" x2="21.5945" y2="36.0876" gradientUnits="userSpaceOnUse">
<stop stop-color="#E5BC4A"/>
<stop offset="1" stop-color="#F48F27"/>
</linearGradient>
<linearGradient id="paint3_linear_113_1237" x1="19.6941" y1="13.9355" x2="19.6941" y2="24.8698" gradientUnits="userSpaceOnUse">
<stop stop-color="#E5BC4A"/>
<stop offset="1" stop-color="#F48F27"/>
</linearGradient>
<linearGradient id="paint4_linear_113_1237" x1="19.6563" y1="7.10791" x2="19.6563" y2="33.6499" gradientUnits="userSpaceOnUse">
<stop stop-color="#E5BC4A"/>
<stop offset="1" stop-color="#F48F27"/>
</linearGradient>
</defs>
</svg>
