<?xml version="1.0" encoding="UTF-8"?>
<svg id="Layer_1" data-name="Layer 1" xmlns="http://www.w3.org/2000/svg" viewBox="0 0 485.64 309.48">
  <defs>
    <style>
      .cls-1 {
        fill: #262626;
        stroke-width: 0px;
      }
    </style>
  </defs>
  <polygon class="cls-1" points="389.26 29.54 389.26 105.73 155.46 164.43 155.46 309.17 139.85 309.17 139.85 151.03 373.65 93.55 373.65 49.56 85.91 121.8 85.91 309.17 70.3 309.17 70.3 109.12 303.35 51.11 303.35 20.02 15.61 92.26 15.61 309.36 0 309.36 0 80.08 318.96 0 318.96 47.19 389.26 29.54"/>
  <g>
    <path class="cls-1" d="m207.65,230.97l-16.37-22.38v38.71h-10.11v-55.24h8.81l19.05,25.55,19.13-25.55h8.86v55.24h-10.11v-38.63l-16.53,22.3h-2.72Z"/>
    <path class="cls-1" d="m247.54,226.42c0-3.06.57-5.94,1.71-8.63,1.14-2.69,2.73-5.04,4.77-7.05,2.04-2,4.47-3.59,7.29-4.75,2.82-1.16,5.89-1.75,9.22-1.75s6.45.58,9.28,1.75c2.83,1.16,5.27,2.75,7.31,4.75,2.04,2,3.64,4.35,4.79,7.05,1.15,2.69,1.73,5.57,1.73,8.63,0,.68-.03,1.22-.08,1.62-.05.41-.11.8-.16,1.18h-36.15c.33,1.71.91,3.25,1.77,4.63.85,1.38,1.88,2.55,3.09,3.51,1.2.96,2.54,1.71,4,2.23,1.46.53,2.97.79,4.51.79,2.44,0,4.59-.54,6.46-1.62,1.87-1.08,3.29-2.5,4.27-4.27h10.68c-.68,1.84-1.67,3.61-2.97,5.3-1.3,1.69-2.86,3.19-4.69,4.49-1.83,1.3-3.9,2.34-6.21,3.11-2.32.77-4.85,1.16-7.62,1.16-3.33,0-6.4-.58-9.22-1.75-2.82-1.16-5.25-2.75-7.29-4.75-2.05-2-3.64-4.35-4.77-7.03-1.14-2.68-1.71-5.55-1.71-8.61Zm23.07-14.26c-1.68,0-3.23.25-4.65.75-1.42.5-2.69,1.2-3.82,2.09-1.12.89-2.08,1.96-2.86,3.19-.79,1.23-1.37,2.58-1.75,4.04h25.71c-.38-1.46-.95-2.81-1.71-4.04-.76-1.23-1.68-2.3-2.76-3.19-1.08-.89-2.31-1.59-3.68-2.09-1.37-.5-2.86-.75-4.49-.75Z"/>
    <path class="cls-1" d="m304.17,190.06h9.87v57.23h-9.87v-57.23Z"/>
    <path class="cls-1" d="m356.16,229.26v18.04h-10.11v-55.24h23.28c2.79,0,5.35.47,7.7,1.4,2.34.93,4.37,2.23,6.07,3.88,1.71,1.65,3.03,3.62,3.98,5.91.95,2.29,1.42,4.77,1.42,7.45s-.47,5.23-1.4,7.49c-.93,2.26-2.25,4.22-3.94,5.87-1.69,1.65-3.7,2.93-6.03,3.84-2.33.91-4.87,1.36-7.64,1.36h-13.32Zm12.8-8.73c1.33,0,2.57-.25,3.72-.75,1.15-.5,2.15-1.19,2.99-2.07.84-.88,1.5-1.92,1.99-3.11.49-1.19.73-2.48.73-3.86s-.24-2.67-.73-3.88c-.49-1.2-1.16-2.25-2.01-3.15-.85-.89-1.85-1.6-3.01-2.13-1.15-.53-2.39-.79-3.72-.79h-12.75v19.74h12.8Z"/>
    <path class="cls-1" d="m203.77,287.43h-16.33v20.88h-6.38v-55.24h23.36c2.63,0,5.05.41,7.27,1.24,2.22.83,4.14,1.99,5.75,3.49,1.61,1.5,2.86,3.31,3.76,5.42.89,2.11,1.34,4.47,1.34,7.07,0,2.09-.29,4.01-.87,5.77-.58,1.76-1.4,3.34-2.46,4.75-1.06,1.41-2.34,2.61-3.84,3.59-1.5.99-3.16,1.74-4.98,2.25l13.32,21.65h-7.39l-12.55-20.88Zm.53-5.61c1.71,0,3.28-.28,4.73-.83,1.45-.55,2.7-1.33,3.76-2.34,1.06-1,1.88-2.21,2.48-3.64.6-1.42.89-3,.89-4.73s-.3-3.28-.91-4.71c-.61-1.44-1.45-2.66-2.52-3.68-1.07-1.02-2.34-1.81-3.8-2.38-1.46-.57-3.05-.85-4.75-.85h-16.74v23.15h16.86Z"/>
    <path class="cls-1" d="m230.17,287.63c0-3.03.57-5.87,1.71-8.51,1.14-2.64,2.71-4.95,4.73-6.93,2.02-1.98,4.39-3.53,7.13-4.67,2.73-1.14,5.7-1.71,8.9-1.71s6.17.57,8.92,1.71c2.75,1.14,5.12,2.69,7.13,4.65,2,1.96,3.58,4.27,4.73,6.93,1.15,2.65,1.73,5.5,1.73,8.53v.93h-.04l-.12,1.02h-38.67c.24,2.22.87,4.23,1.87,6.03,1,1.8,2.25,3.33,3.74,4.59,1.49,1.26,3.16,2.23,5.02,2.92,1.85.69,3.77,1.04,5.75,1.04,1.52,0,2.97-.18,4.35-.55,1.38-.37,2.66-.89,3.84-1.56,1.18-.68,2.24-1.5,3.19-2.46.95-.96,1.75-2.02,2.4-3.19h6.82c-.79,1.81-1.83,3.52-3.15,5.12-1.31,1.6-2.86,2.99-4.63,4.16-1.77,1.18-3.74,2.11-5.91,2.78-2.17.68-4.48,1.02-6.95,1.02-3.2,0-6.16-.57-8.9-1.71-2.74-1.14-5.11-2.69-7.13-4.67-2.02-1.98-3.6-4.29-4.73-6.95-1.14-2.65-1.71-5.5-1.71-8.53Zm22.5-16.65c-2.14,0-4.13.35-5.97,1.06-1.84.7-3.47,1.67-4.89,2.9-1.42,1.23-2.6,2.7-3.53,4.41-.93,1.71-1.55,3.56-1.85,5.56h32.29c-.3-1.98-.91-3.82-1.85-5.52-.93-1.71-2.1-3.18-3.49-4.43-1.39-1.25-3.01-2.22-4.83-2.92-1.83-.7-3.78-1.06-5.87-1.06Z"/>
    <path class="cls-1" d="m326.89,308.31h-6.3v-22.34c0-2.57-.29-4.78-.87-6.62-.58-1.84-1.44-3.36-2.58-4.55-1.14-1.19-2.53-2.06-4.16-2.62-1.64-.55-3.51-.83-5.63-.83-1.98,0-3.83.36-5.56,1.08-1.73.72-3.24,1.73-4.53,3.05-1.29,1.31-2.3,2.88-3.05,4.71-.75,1.83-1.12,3.85-1.12,6.07v22.06h-6.26v-41.35h5.2l.57,6.09c.81-1,1.78-1.94,2.9-2.82,1.12-.88,2.35-1.64,3.68-2.3,1.33-.65,2.75-1.16,4.27-1.54,1.52-.38,3.07-.57,4.67-.57,6.28,0,10.98,1.68,14.1,5.04,3.11,3.36,4.67,8.37,4.67,15.03v22.42Z"/>
    <path class="cls-1" d="m343.34,254.81h4.75v12.15h14.91v5.52h-14.91v20.23c0,2.17.25,3.96.75,5.38.5,1.42,1.17,2.55,2.01,3.39.84.84,1.81,1.42,2.92,1.75,1.11.32,2.26.49,3.45.49h7.31l-.04,5.28h-7.8c-2.11,0-4.07-.26-5.87-.79-1.8-.53-3.37-1.42-4.69-2.68-1.33-1.26-2.37-2.92-3.13-5-.76-2.07-1.14-4.66-1.14-7.78v-20.27h-7.39v-5.04l7.23-1.02,1.62-11.62Z"/>
    <path class="cls-1" d="m373.12,287.63c0-3.03.55-5.87,1.65-8.51,1.1-2.64,2.63-4.95,4.59-6.93,1.96-1.98,4.3-3.53,7.01-4.67,2.71-1.14,5.66-1.71,8.86-1.71,1.87,0,3.64.22,5.3.65,1.67.43,3.22,1.02,4.65,1.75,1.44.73,2.74,1.6,3.92,2.6,1.18,1,2.2,2.07,3.07,3.21l.45-7.07h5.44v41.35h-5.44l-.49-7.03c-.87,1.14-1.89,2.2-3.07,3.19-1.18.99-2.49,1.86-3.94,2.6-1.45.75-3.01,1.33-4.67,1.75-1.67.42-3.42.63-5.26.63-3.2,0-6.14-.57-8.84-1.71-2.69-1.14-5.02-2.69-6.99-4.65-1.96-1.96-3.49-4.27-4.59-6.93-1.1-2.65-1.65-5.5-1.65-8.53Zm6.26,0c0,2.36.43,4.53,1.28,6.52.85,1.99,2.02,3.71,3.49,5.16,1.48,1.45,3.21,2.59,5.2,3.41,1.99.83,4.11,1.24,6.36,1.24s4.4-.41,6.38-1.22c1.98-.81,3.71-1.95,5.2-3.41,1.49-1.46,2.66-3.19,3.51-5.18.85-1.99,1.28-4.16,1.28-6.52s-.43-4.49-1.3-6.48c-.87-1.99-2.04-3.71-3.51-5.16-1.48-1.45-3.21-2.59-5.2-3.41-1.99-.83-4.11-1.24-6.36-1.24s-4.41.41-6.4,1.24c-1.99.83-3.72,1.96-5.18,3.41-1.46,1.45-2.62,3.17-3.47,5.16-.85,1.99-1.28,4.15-1.28,6.48Z"/>
    <path class="cls-1" d="m433.03,251.11h6.26v57.19h-6.26v-57.19Z"/>
    <path class="cls-1" d="m455.78,296.49c.03,1.03.33,2,.91,2.92.58.92,1.37,1.73,2.36,2.44.99.7,2.14,1.27,3.45,1.69,1.31.42,2.7.63,4.16.63,4.2,0,7.33-.67,9.4-2.01,2.07-1.34,3.11-3.12,3.11-5.34,0-1.22-.32-2.23-.95-3.05-.64-.81-1.52-1.49-2.66-2.03-1.14-.54-2.52-.99-4.14-1.34-1.62-.35-3.44-.68-5.44-.97-1.6-.19-3.28-.47-5.06-.83-1.77-.37-3.4-.94-4.87-1.73-1.48-.79-2.69-1.85-3.66-3.21-.96-1.35-1.44-3.14-1.44-5.36,0-1.65.3-3.23.91-4.73.61-1.5,1.6-2.83,2.97-3.98,1.37-1.15,3.15-2.06,5.34-2.74,2.19-.68,4.86-1.02,8-1.02,2.38,0,4.53.3,6.44.91s3.54,1.45,4.89,2.52c1.35,1.07,2.4,2.34,3.13,3.8.73,1.46,1.1,3.06,1.1,4.79h-6.26c-.05-1-.33-1.92-.81-2.76-.49-.84-1.16-1.56-2.01-2.15-.85-.6-1.86-1.06-3.03-1.38-1.16-.33-2.45-.49-3.86-.49-1.92,0-3.56.2-4.92.61-1.35.41-2.45.95-3.29,1.62-.84.68-1.45,1.44-1.83,2.3-.38.85-.57,1.73-.57,2.62,0,1.06.26,1.94.77,2.66.51.72,1.28,1.33,2.29,1.83,1.02.5,2.28.9,3.8,1.2,1.52.3,3.29.54,5.32.73,1.19.16,2.42.35,3.7.57,1.27.22,2.51.51,3.72.89,1.2.38,2.35.85,3.43,1.4,1.08.56,2.02,1.25,2.82,2.07.8.83,1.44,1.8,1.91,2.92.47,1.12.71,2.44.71,3.96,0,2.11-.43,3.97-1.3,5.59-.87,1.61-2.13,2.97-3.78,4.08-1.65,1.11-3.66,1.95-6.03,2.52-2.37.57-5.06.85-8.06.85-2.63,0-4.98-.39-7.07-1.16-2.09-.77-3.85-1.77-5.28-3.01-1.44-1.23-2.54-2.63-3.31-4.18-.77-1.56-1.16-3.12-1.16-4.69l6.13.04Z"/>
  </g>
</svg>