<?xml version="1.0" encoding="UTF-8"?>
<svg id="Layer_1" data-name="Layer 1" xmlns="http://www.w3.org/2000/svg" viewBox="0 0 539.16 287.11">
  <defs>
    <style>
      .cls-1 {
        fill: #262626;
        stroke-width: 0px;
      }
    </style>
  </defs>
  <polygon class="cls-1" points="347.08 26.34 347.08 94.27 138.62 146.61 138.62 275.67 124.69 275.67 124.69 134.67 333.15 83.41 333.15 44.19 76.6 108.6 76.6 275.67 62.68 275.67 62.68 97.3 270.48 45.57 270.48 17.85 13.92 82.26 13.92 275.83 0 275.83 0 71.41 284.4 0 284.4 42.08 347.08 26.34"/>
  <g>
    <path class="cls-1" d="m179.58,189.22l-13.62-18.63v32.22h-8.42v-45.97h7.34l15.85,21.26,15.92-21.26h7.37v45.97h-8.42v-32.15l-13.76,18.56h-2.26Z"/>
    <path class="cls-1" d="m212.77,185.43c0-2.55.47-4.94,1.42-7.18.95-2.24,2.27-4.2,3.97-5.86,1.7-1.67,3.72-2.99,6.07-3.96,2.34-.97,4.9-1.45,7.67-1.45s5.37.48,7.72,1.45c2.35.97,4.38,2.29,6.08,3.96,1.7,1.67,3.03,3.62,3.99,5.86.96,2.24,1.44,4.64,1.44,7.18,0,.56-.02,1.01-.07,1.35-.05.34-.09.67-.14.98h-30.09c.27,1.42.76,2.7,1.47,3.85.71,1.15,1.57,2.12,2.57,2.92,1,.8,2.11,1.42,3.33,1.86,1.22.44,2.47.66,3.75.66,2.03,0,3.82-.45,5.37-1.35,1.55-.9,2.74-2.08,3.55-3.55h8.89c-.56,1.53-1.39,3-2.47,4.41-1.08,1.41-2.38,2.65-3.9,3.74-1.52,1.08-3.25,1.94-5.17,2.59-1.93.64-4.04.96-6.34.96-2.77,0-5.33-.49-7.67-1.45-2.34-.97-4.37-2.29-6.07-3.96-1.7-1.67-3.03-3.62-3.97-5.85-.95-2.23-1.42-4.62-1.42-7.17Zm19.2-11.87c-1.4,0-2.69.21-3.87.63-1.18.42-2.24,1-3.18,1.74-.94.74-1.73,1.63-2.38,2.65-.65,1.03-1.14,2.15-1.45,3.36h21.4c-.32-1.22-.79-2.34-1.42-3.36-.63-1.03-1.4-1.91-2.3-2.65-.9-.74-1.92-1.32-3.06-1.74-1.14-.42-2.38-.63-3.74-.63Z"/>
    <path class="cls-1" d="m259.89,155.18h8.21v47.63h-8.21v-47.63Z"/>
    <path class="cls-1" d="m303.16,187.8v15.01h-8.42v-45.97h19.37c2.32,0,4.46.39,6.41,1.17,1.95.78,3.63,1.85,5.05,3.23,1.42,1.37,2.52,3.01,3.31,4.92.79,1.9,1.18,3.97,1.18,6.2s-.39,4.36-1.17,6.24c-.78,1.88-1.87,3.51-3.28,4.88-1.41,1.37-3.08,2.44-5.02,3.19-1.94.76-4.06,1.13-6.36,1.13h-11.09Zm10.65-7.27c1.1,0,2.14-.21,3.09-.63.96-.42,1.79-.99,2.48-1.72.7-.73,1.25-1.59,1.66-2.59.41-.99.61-2.06.61-3.21s-.2-2.23-.61-3.23c-.41-1-.96-1.88-1.67-2.62-.71-.74-1.54-1.34-2.5-1.77-.96-.44-1.99-.66-3.09-.66h-10.61v16.43h10.65Z"/>
    <path class="cls-1" d="m176.34,236.2h-13.59v17.38h-5.31v-45.97h19.44c2.19,0,4.2.34,6.05,1.03,1.85.69,3.44,1.66,4.78,2.91,1.34,1.25,2.38,2.75,3.13,4.51.74,1.76,1.12,3.72,1.12,5.88,0,1.74-.24,3.34-.73,4.8-.48,1.47-1.17,2.78-2.05,3.96-.88,1.17-1.94,2.17-3.19,2.99-1.25.82-2.63,1.45-4.14,1.88l11.09,18.02h-6.15l-10.45-17.38Zm.44-4.66c1.42,0,2.73-.23,3.94-.69,1.21-.46,2.25-1.11,3.13-1.94.88-.83,1.57-1.84,2.06-3.03.5-1.18.74-2.5.74-3.94s-.25-2.73-.76-3.92c-.51-1.19-1.21-2.21-2.1-3.06-.89-.85-1.94-1.5-3.16-1.98s-2.54-.71-3.96-.71h-13.93v19.27h14.03Z"/>
    <path class="cls-1" d="m198.32,236.37c0-2.52.47-4.88,1.42-7.08.95-2.2,2.26-4.12,3.94-5.76,1.68-1.64,3.66-2.94,5.93-3.89,2.28-.95,4.74-1.42,7.4-1.42s5.13.47,7.42,1.42c2.29.95,4.26,2.24,5.93,3.87,1.67,1.63,2.98,3.56,3.94,5.76.96,2.21,1.44,4.58,1.44,7.1v.78h-.03l-.1.84h-32.18c.2,1.85.72,3.52,1.56,5.02.83,1.5,1.87,2.77,3.11,3.82,1.24,1.05,2.63,1.86,4.17,2.43,1.54.57,3.14.86,4.78.86,1.26,0,2.47-.15,3.62-.46,1.15-.3,2.21-.74,3.19-1.3.98-.56,1.86-1.25,2.65-2.05.79-.8,1.45-1.68,1.99-2.65h5.68c-.65,1.51-1.53,2.93-2.62,4.26-1.09,1.33-2.38,2.48-3.85,3.46-1.48.98-3.12,1.75-4.92,2.32-1.8.56-3.73.85-5.78.85-2.66,0-5.13-.47-7.4-1.42-2.28-.95-4.25-2.24-5.93-3.89-1.68-1.64-2.99-3.57-3.94-5.78-.95-2.21-1.42-4.57-1.42-7.1Zm18.73-13.86c-1.78,0-3.44.29-4.97.88-1.53.59-2.89,1.39-4.07,2.42-1.18,1.03-2.16,2.25-2.94,3.67-.78,1.42-1.29,2.96-1.54,4.63h26.87c-.25-1.64-.76-3.18-1.54-4.6s-1.75-2.65-2.91-3.68c-1.16-1.04-2.5-1.85-4.02-2.43-1.52-.59-3.15-.88-4.88-.88Z"/>
    <path class="cls-1" d="m278.8,253.58h-5.24v-18.59c0-2.14-.24-3.98-.73-5.51-.49-1.53-1.2-2.79-2.15-3.79-.95-.99-2.1-1.72-3.46-2.18-1.36-.46-2.92-.69-4.68-.69-1.65,0-3.19.3-4.63.9-1.44.6-2.7,1.44-3.77,2.54-1.07,1.09-1.92,2.4-2.54,3.92-.62,1.52-.93,3.21-.93,5.05v18.36h-5.21v-34.41h4.33l.47,5.07c.68-.83,1.48-1.62,2.42-2.35.93-.73,1.95-1.37,3.06-1.91,1.1-.54,2.29-.97,3.55-1.28,1.26-.32,2.56-.47,3.89-.47,5.23,0,9.14,1.4,11.73,4.19,2.59,2.79,3.89,6.96,3.89,12.51v18.66Z"/>
    <path class="cls-1" d="m292.49,209.06h3.96v10.11h12.41v4.6h-12.41v16.83c0,1.8.21,3.3.63,4.48.42,1.18.97,2.12,1.67,2.82.7.7,1.51,1.18,2.43,1.45.92.27,1.88.41,2.87.41h6.08l-.03,4.39h-6.49c-1.76,0-3.39-.22-4.88-.66-1.5-.44-2.8-1.18-3.9-2.23-1.1-1.05-1.97-2.43-2.6-4.16-.63-1.72-.95-3.88-.95-6.47v-16.87h-6.15v-4.19l6.02-.84,1.35-9.67Z"/>
    <path class="cls-1" d="m317.27,236.37c0-2.52.46-4.88,1.37-7.08.91-2.2,2.19-4.12,3.82-5.76,1.63-1.64,3.58-2.94,5.83-3.89,2.25-.95,4.71-1.42,7.37-1.42,1.56,0,3.03.18,4.41.54,1.39.36,2.68.85,3.87,1.45,1.19.61,2.28,1.33,3.26,2.16.98.83,1.83,1.72,2.55,2.67l.37-5.88h4.53v34.41h-4.53l-.41-5.85c-.72.95-1.57,1.83-2.55,2.65-.98.82-2.07,1.54-3.28,2.16-1.21.62-2.5,1.1-3.89,1.45-1.39.35-2.85.52-4.38.52-2.66,0-5.11-.47-7.35-1.42-2.24-.95-4.18-2.24-5.81-3.87-1.63-1.63-2.91-3.55-3.82-5.76-.91-2.21-1.37-4.57-1.37-7.1Zm5.21,0c0,1.96.36,3.77,1.06,5.43.71,1.66,1.68,3.09,2.91,4.29,1.23,1.21,2.67,2.15,4.33,2.84,1.66.69,3.42,1.03,5.29,1.03s3.66-.34,5.31-1.01c1.64-.68,3.09-1.62,4.33-2.84,1.24-1.22,2.21-2.65,2.92-4.31.71-1.66,1.07-3.46,1.07-5.43s-.36-3.74-1.08-5.39c-.72-1.66-1.7-3.09-2.92-4.29-1.23-1.21-2.67-2.15-4.33-2.84-1.66-.69-3.42-1.03-5.29-1.03s-3.67.34-5.32,1.03c-1.66.69-3.09,1.63-4.31,2.84-1.22,1.21-2.18,2.64-2.89,4.29-.71,1.66-1.06,3.45-1.06,5.39Z"/>
    <path class="cls-1" d="m367.13,205.98h5.21v47.6h-5.21v-47.6Z"/>
    <path class="cls-1" d="m386.06,243.74c.02.86.28,1.67.76,2.43.48.77,1.14,1.44,1.96,2.03.82.59,1.78,1.05,2.87,1.4,1.09.35,2.25.52,3.46.52,3.49,0,6.1-.56,7.83-1.67,1.72-1.12,2.59-2.6,2.59-4.45,0-1.01-.27-1.86-.79-2.54-.53-.68-1.27-1.24-2.21-1.69-.95-.45-2.1-.82-3.45-1.12-1.35-.29-2.86-.56-4.53-.81-1.33-.16-2.73-.39-4.21-.69-1.48-.3-2.83-.78-4.06-1.44-1.23-.65-2.24-1.54-3.04-2.67-.8-1.13-1.2-2.61-1.2-4.46,0-1.37.25-2.69.76-3.94.51-1.25,1.33-2.35,2.47-3.31,1.14-.96,2.62-1.72,4.45-2.28,1.83-.56,4.04-.84,6.66-.84,1.98,0,3.77.25,5.36.76s2.95,1.21,4.07,2.1c1.13.89,1.99,1.94,2.6,3.16.61,1.22.91,2.55.91,3.99h-5.21c-.05-.83-.27-1.6-.68-2.3-.41-.7-.96-1.3-1.67-1.79-.71-.5-1.55-.88-2.52-1.15-.97-.27-2.04-.41-3.21-.41-1.6,0-2.96.17-4.09.51-1.13.34-2.04.79-2.74,1.35-.7.56-1.21,1.2-1.52,1.91-.32.71-.47,1.44-.47,2.18,0,.88.21,1.62.64,2.21.43.6,1.06,1.1,1.91,1.52.85.42,1.9.75,3.16,1,1.26.25,2.74.45,4.43.61.99.14,2.02.29,3.08.47,1.06.18,2.09.43,3.09.74,1,.32,1.95.7,2.86,1.17.9.46,1.68,1.04,2.35,1.72.66.69,1.19,1.5,1.59,2.43.39.94.59,2.03.59,3.3,0,1.76-.36,3.31-1.08,4.65-.72,1.34-1.77,2.47-3.14,3.4-1.37.92-3.05,1.62-5.02,2.1-1.97.47-4.21.71-6.71.71-2.19,0-4.15-.32-5.88-.96-1.74-.64-3.2-1.48-4.39-2.5-1.19-1.03-2.11-2.19-2.76-3.48-.64-1.3-.96-2.6-.96-3.9l5.1.03Z"/>
  </g>
  <g>
    <path class="cls-1" d="m157.06,263.66h1.23v4.84h6.37v-4.84h1.24v10.65h-1.24v-4.73h-6.37v4.73h-1.23v-10.65Z"/>
    <path class="cls-1" d="m169.76,263.66h7.02v1.1h-5.79v3.74h5.03v1.08h-5.03v3.64h5.86v1.09h-7.09v-10.65Z"/>
    <path class="cls-1" d="m184.34,270.29h-3.15v4.02h-1.23v-10.65h4.5c.51,0,.97.08,1.4.24.43.16.8.38,1.11.67.31.29.55.64.72,1.04.17.41.26.86.26,1.36,0,.4-.06.77-.17,1.11-.11.34-.27.65-.47.92-.2.27-.45.5-.74.69-.29.19-.61.34-.96.43l2.57,4.17h-1.42l-2.42-4.02Zm.1-1.08c.33,0,.63-.05.91-.16s.52-.26.72-.45c.2-.19.36-.43.48-.7.12-.27.17-.58.17-.91s-.06-.63-.18-.91c-.12-.28-.28-.51-.49-.71s-.45-.35-.73-.46c-.28-.11-.59-.16-.92-.16h-3.23v4.46h3.25Z"/>
    <path class="cls-1" d="m191.02,263.66h7.02v1.1h-5.79v3.74h5.03v1.08h-5.03v3.64h5.86v1.09h-7.09v-10.65Z"/>
    <path class="cls-1" d="m208.32,264.74h-3.42v-1.08h8.09v1.08h-3.43v9.57h-1.24v-9.57Z"/>
    <path class="cls-1" d="m214.48,268.98c0-.52.07-1.01.2-1.49.14-.48.33-.92.57-1.33.25-.41.54-.79.89-1.12.35-.33.73-.62,1.15-.86s.87-.43,1.36-.56c.49-.13.99-.2,1.51-.2s1.03.06,1.51.2c.49.13.94.32,1.36.56.42.24.8.53,1.15.86.35.33.64.71.89,1.12.25.41.44.86.58,1.33.13.47.2.97.2,1.49s-.07,1-.2,1.48c-.14.47-.33.91-.58,1.33-.25.41-.54.79-.89,1.12-.35.33-.73.62-1.15.86-.42.24-.87.43-1.36.56s-.99.2-1.51.2-1.03-.07-1.51-.2-.94-.32-1.36-.56c-.42-.24-.8-.53-1.15-.86-.35-.33-.64-.71-.89-1.12-.25-.41-.44-.85-.57-1.33-.14-.47-.2-.96-.2-1.48Zm1.23,0c0,.63.12,1.21.35,1.75s.55,1.01.96,1.41c.4.4.88.71,1.42.94.54.23,1.12.34,1.73.34s1.2-.11,1.74-.34c.54-.23,1.02-.54,1.42-.94.4-.4.72-.87.96-1.41.24-.54.35-1.13.35-1.75s-.12-1.22-.35-1.76c-.23-.54-.55-1.02-.96-1.42-.4-.4-.87-.72-1.42-.95s-1.12-.34-1.74-.34-1.19.12-1.73.34c-.54.23-1.01.55-1.42.95s-.72.87-.96,1.42c-.23.54-.35,1.13-.35,1.76Z"/>
    <path class="cls-1" d="m240.1,271.9h-4.94l-1.86,2.41h-1.45l8.15-10.65h1.3l.02,10.65h-1.21v-2.41Zm-4.22-.92h4.22v-5.59h-.02l-.16.35-4.05,5.24Z"/>
    <path class="cls-1" d="m254.26,266.95c-.18-.38-.4-.71-.68-1.01s-.58-.56-.93-.77-.72-.37-1.12-.49c-.4-.11-.81-.17-1.24-.17-.62,0-1.19.12-1.73.34s-1.01.55-1.42.95c-.41.4-.72.87-.96,1.42-.23.54-.35,1.13-.35,1.76s.12,1.21.35,1.75c.23.54.55,1.01.96,1.41.4.4.88.71,1.42.94.54.23,1.12.34,1.73.34.42,0,.83-.06,1.23-.17.4-.11.77-.27,1.12-.48.34-.21.65-.46.93-.76s.5-.64.68-1.01h1.28c-.2.55-.48,1.05-.84,1.48-.36.43-.78.8-1.24,1.1-.46.3-.97.53-1.51.69s-1.09.24-1.64.24c-.52,0-1.03-.07-1.51-.2-.49-.13-.94-.32-1.36-.56-.42-.24-.8-.53-1.15-.86-.35-.33-.64-.71-.89-1.12-.25-.41-.44-.85-.57-1.33-.14-.47-.2-.96-.2-1.48s.07-1.01.2-1.49c.14-.48.33-.92.57-1.33.25-.41.54-.79.89-1.12.35-.33.73-.62,1.15-.86.42-.24.87-.43,1.36-.56.49-.13.99-.2,1.51-.2.55,0,1.1.08,1.64.23.54.16,1.04.38,1.51.69.47.3.88.67,1.25,1.1.36.44.64.94.84,1.5h-1.28Z"/>
    <path class="cls-1" d="m267.83,266.95c-.18-.38-.4-.71-.68-1.01-.27-.3-.58-.56-.93-.77-.34-.21-.72-.37-1.12-.49s-.81-.17-1.24-.17c-.62,0-1.19.12-1.73.34-.54.23-1.01.55-1.42.95s-.72.87-.96,1.42c-.23.54-.35,1.13-.35,1.76s.12,1.21.35,1.75.55,1.01.96,1.41c.4.4.88.71,1.42.94.54.23,1.12.34,1.73.34.42,0,.83-.06,1.23-.17.4-.11.77-.27,1.12-.48.34-.21.65-.46.93-.76.27-.3.5-.64.68-1.01h1.28c-.2.55-.48,1.05-.84,1.48-.36.43-.78.8-1.24,1.1-.46.3-.97.53-1.51.69s-1.09.24-1.64.24c-.52,0-1.03-.07-1.51-.2s-.94-.32-1.36-.56c-.42-.24-.8-.53-1.15-.86-.35-.33-.64-.71-.89-1.12-.25-.41-.44-.85-.57-1.33-.14-.47-.2-.96-.2-1.48s.07-1.01.2-1.49c.14-.48.33-.92.57-1.33.25-.41.54-.79.89-1.12.35-.33.73-.62,1.15-.86s.87-.43,1.36-.56c.49-.13.99-.2,1.51-.2.55,0,1.1.08,1.64.23.54.16,1.04.38,1.51.69.47.3.88.67,1.25,1.1.36.44.64.94.84,1.5h-1.28Z"/>
    <path class="cls-1" d="m271.74,268.98c0-.52.07-1.01.2-1.49.14-.48.33-.92.57-1.33.25-.41.54-.79.89-1.12.35-.33.73-.62,1.15-.86.42-.24.87-.43,1.36-.56.49-.13.99-.2,1.51-.2s1.03.06,1.51.2c.49.13.94.32,1.36.56s.8.53,1.15.86c.35.33.64.71.89,1.12.25.41.44.86.58,1.33.14.47.2.97.2,1.49s-.07,1-.2,1.48c-.14.47-.33.91-.58,1.33-.25.41-.55.79-.89,1.12-.35.33-.73.62-1.15.86-.42.24-.87.43-1.36.56s-.99.2-1.51.2-1.03-.07-1.51-.2c-.49-.13-.94-.32-1.36-.56-.42-.24-.8-.53-1.15-.86-.35-.33-.64-.71-.89-1.12-.25-.41-.44-.85-.57-1.33-.14-.47-.2-.96-.2-1.48Zm1.23,0c0,.63.12,1.21.35,1.75.23.54.55,1.01.96,1.41.4.4.88.71,1.42.94.54.23,1.12.34,1.73.34s1.2-.11,1.74-.34c.54-.23,1.01-.54,1.42-.94.4-.4.72-.87.96-1.41.23-.54.35-1.13.35-1.75s-.12-1.22-.35-1.76c-.24-.54-.55-1.02-.96-1.42-.4-.4-.87-.72-1.42-.95s-1.12-.34-1.74-.34-1.19.12-1.73.34-1.01.55-1.42.95c-.41.4-.72.87-.96,1.42-.23.54-.35,1.13-.35,1.76Z"/>
    <path class="cls-1" d="m291.46,270.73l-3.79-5.03v8.61h-1.23v-10.65h1.06l4.15,5.46,4.15-5.46h1.07v10.65h-1.22v-8.6l-3.82,5.03h-.37Z"/>
    <path class="cls-1" d="m300.18,268.98c0-.52.07-1.01.2-1.49.14-.48.33-.92.57-1.33.25-.41.54-.79.89-1.12.35-.33.73-.62,1.15-.86.42-.24.87-.43,1.36-.56.49-.13.99-.2,1.51-.2s1.03.06,1.51.2c.49.13.94.32,1.36.56s.8.53,1.15.86c.35.33.64.71.89,1.12.25.41.44.86.58,1.33.14.47.2.97.2,1.49s-.07,1-.2,1.48c-.14.47-.33.91-.58,1.33-.25.41-.55.79-.89,1.12-.35.33-.73.62-1.15.86-.42.24-.87.43-1.36.56s-.99.2-1.51.2-1.03-.07-1.51-.2c-.49-.13-.94-.32-1.36-.56-.42-.24-.8-.53-1.15-.86-.35-.33-.64-.71-.89-1.12-.25-.41-.44-.85-.57-1.33-.14-.47-.2-.96-.2-1.48Zm1.23,0c0,.63.12,1.21.35,1.75.23.54.55,1.01.96,1.41.4.4.88.71,1.42.94.54.23,1.12.34,1.73.34s1.2-.11,1.74-.34c.54-.23,1.01-.54,1.42-.94.4-.4.72-.87.96-1.41.23-.54.35-1.13.35-1.75s-.12-1.22-.35-1.76c-.24-.54-.55-1.02-.96-1.42-.4-.4-.87-.72-1.42-.95s-1.12-.34-1.74-.34-1.19.12-1.73.34-1.01.55-1.42.95c-.41.4-.72.87-.96,1.42-.23.54-.35,1.13-.35,1.76Z"/>
    <path class="cls-1" d="m314.88,263.66h3.88c.81,0,1.55.12,2.23.35s1.26.58,1.76,1.03.88,1.01,1.15,1.67c.28.66.42,1.41.42,2.26,0,.79-.12,1.52-.36,2.17-.24.66-.6,1.22-1.07,1.68-.47.47-1.05.83-1.73,1.09s-1.47.39-2.36.39h-3.91v-10.65Zm3.84,9.56c.7,0,1.32-.1,1.86-.29s1-.48,1.37-.84c.37-.37.65-.81.84-1.33.19-.52.29-1.1.29-1.75s-.09-1.19-.27-1.71-.45-.97-.81-1.35-.81-.67-1.36-.88c-.54-.21-1.18-.32-1.91-.32h-2.62v8.48h2.62Z"/>
    <path class="cls-1" d="m333.84,271.82h-5.51l-1.06,2.49h-1.31l4.53-10.65h1.2l4.52,10.65h-1.31l-1.06-2.49Zm-5.06-1.07h4.6l-2.25-5.32-.05-.18-.04.18-2.26,5.32Z"/>
    <path class="cls-1" d="m340.11,264.74h-3.42v-1.08h8.09v1.08h-3.43v9.57h-1.24v-9.57Z"/>
    <path class="cls-1" d="m347.69,263.66h7.02v1.1h-5.79v3.74h5.03v1.08h-5.03v3.64h5.86v1.09h-7.09v-10.65Z"/>
    <path class="cls-1" d="m371.2,263.66l-4.34,6.55v4.09s-1.23,0-1.23,0v-4.09l-4.33-6.56h1.46l3.48,5.43h.02l3.47-5.43h1.47Z"/>
    <path class="cls-1" d="m372.18,268.98c0-.52.07-1.01.2-1.49.14-.48.33-.92.57-1.33.25-.41.54-.79.89-1.12.35-.33.73-.62,1.15-.86.42-.24.87-.43,1.36-.56.49-.13.99-.2,1.51-.2s1.03.06,1.51.2c.49.13.94.32,1.36.56s.8.53,1.15.86c.35.33.64.71.89,1.12.25.41.44.86.58,1.33.14.47.2.97.2,1.49s-.07,1-.2,1.48c-.14.47-.33.91-.58,1.33-.25.41-.55.79-.89,1.12-.35.33-.73.62-1.15.86-.42.24-.87.43-1.36.56s-.99.2-1.51.2-1.03-.07-1.51-.2c-.49-.13-.94-.32-1.36-.56-.42-.24-.8-.53-1.15-.86-.35-.33-.64-.71-.89-1.12-.25-.41-.44-.85-.57-1.33-.14-.47-.2-.96-.2-1.48Zm1.23,0c0,.63.12,1.21.35,1.75.23.54.55,1.01.96,1.41.4.4.88.71,1.42.94.54.23,1.12.34,1.73.34s1.2-.11,1.74-.34c.54-.23,1.01-.54,1.42-.94.4-.4.72-.87.96-1.41.23-.54.35-1.13.35-1.75s-.12-1.22-.35-1.76c-.24-.54-.55-1.02-.96-1.42-.4-.4-.87-.72-1.42-.95s-1.12-.34-1.74-.34-1.19.12-1.73.34-1.01.55-1.42.95c-.41.4-.72.87-.96,1.42-.23.54-.35,1.13-.35,1.76Z"/>
    <path class="cls-1" d="m394.15,263.65h1.24v6.53c0,.64-.11,1.23-.33,1.76-.22.53-.52.99-.91,1.37-.39.38-.85.68-1.39.89-.54.21-1.12.32-1.75.32s-1.19-.1-1.72-.31c-.53-.2-.99-.49-1.39-.87s-.7-.84-.92-1.37c-.22-.54-.34-1.13-.34-1.79v-6.53h1.22v6.52c0,.44.07.86.21,1.26.14.39.34.74.61,1.04.27.3.59.53.99.7s.84.26,1.35.26.93-.08,1.32-.25c.39-.17.71-.4.99-.69s.48-.63.62-1.03c.14-.39.21-.81.21-1.26v-6.55Z"/>
    <path class="cls-1" d="m403.4,270.29h-3.15v4.02h-1.23v-10.65h4.5c.51,0,.97.08,1.4.24.43.16.8.38,1.11.67.31.29.55.64.72,1.04.17.41.26.86.26,1.36,0,.4-.06.77-.17,1.11-.11.34-.27.65-.47.92-.2.27-.45.5-.74.69-.29.19-.61.34-.96.43l2.57,4.17h-1.42l-2.42-4.02Zm.1-1.08c.33,0,.63-.05.91-.16s.52-.26.72-.45c.2-.19.36-.43.48-.7.12-.27.17-.58.17-.91s-.06-.63-.18-.91c-.12-.28-.28-.51-.49-.71s-.45-.35-.73-.46c-.28-.11-.59-.16-.92-.16h-3.23v4.46h3.25Z"/>
    <path class="cls-1" d="m415.93,270.55v3.76h-1.23v-10.65h4.34c.51,0,.97.09,1.4.26.43.17.8.41,1.11.72s.55.67.72,1.09c.17.42.26.88.26,1.38s-.09.96-.26,1.38c-.17.42-.41.78-.72,1.09s-.67.54-1.1.71c-.42.17-.89.25-1.39.25h-3.13Zm3.08-1.08c.33,0,.63-.06.91-.18.28-.12.52-.29.72-.5.2-.21.36-.46.48-.75.12-.29.17-.6.17-.93s-.06-.64-.18-.93-.28-.54-.49-.76c-.21-.21-.45-.38-.73-.5-.28-.12-.59-.18-.92-.18h-3.06v4.73h3.08Z"/>
    <path class="cls-1" d="m425.7,263.66h7.02v1.1h-5.79v3.74h5.03v1.08h-5.03v3.64h5.86v1.09h-7.09v-10.65Z"/>
    <path class="cls-1" d="m440.27,270.29h-3.15v4.02h-1.23v-10.65h4.5c.51,0,.97.08,1.4.24s.8.38,1.11.67c.31.29.55.64.72,1.04.17.41.26.86.26,1.36,0,.4-.06.77-.17,1.11-.11.34-.27.65-.47.92-.2.27-.45.5-.74.69-.29.19-.61.34-.96.43l2.57,4.17h-1.42l-2.42-4.02Zm.1-1.08c.33,0,.63-.05.91-.16s.52-.26.72-.45c.2-.19.36-.43.48-.7.11-.27.17-.58.17-.91s-.06-.63-.18-.91c-.12-.28-.28-.51-.49-.71-.21-.2-.45-.35-.73-.46-.28-.11-.59-.16-.92-.16h-3.23v4.46h3.25Z"/>
    <path class="cls-1" d="m446.96,263.66h7.02v1.1h-5.79v3.97h5.03v1.08h-5.03v4.5h-1.23v-10.65Z"/>
    <path class="cls-1" d="m456.95,263.66h7.02v1.1h-5.79v3.74h5.03v1.08h-5.03v3.64h5.86v1.09h-7.09v-10.65Z"/>
    <path class="cls-1" d="m475.87,266.95c-.18-.38-.4-.71-.68-1.01s-.58-.56-.93-.77-.72-.37-1.12-.49c-.4-.11-.81-.17-1.24-.17-.62,0-1.19.12-1.73.34s-1.01.55-1.42.95c-.41.4-.72.87-.96,1.42-.23.54-.35,1.13-.35,1.76s.12,1.21.35,1.75c.23.54.55,1.01.96,1.41.4.4.88.71,1.42.94.54.23,1.12.34,1.73.34.42,0,.83-.06,1.23-.17.4-.11.77-.27,1.12-.48.34-.21.65-.46.93-.76s.5-.64.68-1.01h1.28c-.2.55-.48,1.05-.84,1.48-.36.43-.78.8-1.24,1.1-.46.3-.97.53-1.51.69s-1.09.24-1.64.24c-.52,0-1.03-.07-1.51-.2-.49-.13-.94-.32-1.36-.56-.42-.24-.8-.53-1.15-.86-.35-.33-.64-.71-.89-1.12-.25-.41-.44-.85-.57-1.33-.14-.47-.2-.96-.2-1.48s.07-1.01.2-1.49c.14-.48.33-.92.57-1.33.25-.41.54-.79.89-1.12.35-.33.73-.62,1.15-.86.42-.24.87-.43,1.36-.56.49-.13.99-.2,1.51-.2.55,0,1.1.08,1.64.23.54.16,1.04.38,1.51.69.47.3.88.67,1.25,1.1.36.44.64.94.84,1.5h-1.28Z"/>
    <path class="cls-1" d="m482.85,264.74h-3.42v-1.08h8.09v1.08h-3.43v9.57h-1.24v-9.57Z"/>
    <path class="cls-1" d="m495.55,271.25c0,.29.07.56.22.83s.34.5.59.7c.25.2.55.37.89.49.34.12.71.18,1.1.18,1.02,0,1.79-.17,2.31-.52s.79-.86.79-1.54c0-.36-.08-.66-.24-.9s-.38-.44-.66-.6c-.28-.16-.61-.28-.98-.38-.37-.1-.77-.18-1.2-.25-.26-.04-.52-.08-.81-.12s-.56-.11-.84-.19-.54-.18-.79-.3c-.25-.12-.47-.28-.67-.46s-.35-.4-.46-.66-.17-.56-.17-.92c0-.42.07-.82.21-1.2.14-.38.37-.72.68-1.01.31-.29.72-.52,1.23-.69.51-.17,1.13-.26,1.86-.26.56,0,1.07.07,1.52.22.45.15.83.35,1.14.62.31.26.55.58.72.95.17.37.25.77.25,1.21h-1.24c0-.29-.06-.55-.18-.78-.12-.23-.28-.43-.5-.6s-.47-.3-.78-.39c-.31-.09-.65-.14-1.03-.14-.52,0-.94.06-1.28.17-.34.11-.61.27-.81.45-.2.19-.35.39-.43.63-.08.23-.13.47-.13.71,0,.31.07.56.22.77.15.21.36.38.62.51.27.14.58.24.96.32.37.08.78.14,1.22.2.29.05.59.11.89.18s.59.15.87.25.54.23.79.38c.25.15.46.33.64.54.18.21.33.46.43.75.11.29.16.62.16,1,0,.5-.1.94-.3,1.33s-.49.72-.86.99c-.38.27-.83.48-1.37.62s-1.15.22-1.84.22c-.64,0-1.21-.1-1.7-.29-.5-.19-.92-.44-1.26-.75-.34-.31-.6-.66-.78-1.05-.18-.39-.27-.79-.27-1.19h1.23Z"/>
    <path class="cls-1" d="m508.39,264.74h-3.42v-1.08h8.09v1.08h-3.43v9.57h-1.24v-9.57Z"/>
    <path class="cls-1" d="m521.31,271.82h-5.51l-1.06,2.49h-1.31l4.53-10.65h1.2l4.52,10.65h-1.31l-1.06-2.49Zm-5.06-1.07h4.6l-2.25-5.32-.05-.18-.04.18-2.26,5.32Z"/>
    <path class="cls-1" d="m533.37,263.66l-4.34,6.55v4.09s-1.23,0-1.23,0v-4.09l-4.33-6.56h1.46l3.48,5.43h.02l3.47-5.43h1.47Z"/>
  </g>
</svg>